<svg width="120" height="120" viewBox="0 0 120 120" fill="none" xmlns="http://www.w3.org/2000/svg">
<g clip-path="url(#clip0)">
<path d="M25.6209 109.097C35.3743 115.943 47.2127 120 60.0006 120C93.091 120 119.991 93.0902 119.991 60.0092C119.991 53.5769 118.956 47.4051 117.073 41.5847C111.988 25.8551 100.554 12.9857 85.8139 5.92954C77.9782 2.17129 69.2558 -0.00228858 59.9983 1.80829e-06C26.9264 -0.00228858 0.00744629 26.9327 0.00744629 60.0092C0.00744629 73.302 4.40815 85.5548 11.7411 95.506C15.6116 100.749 20.2797 105.341 25.6209 109.097ZM100.89 26.4558C104.583 30.9332 107.557 36.0181 109.624 41.5454C110.073 42.7485 109.398 44.0634 108.176 44.4591L87.1801 51.2453C85.9582 51.6409 84.6598 50.9635 84.1594 49.7791C83.4869 48.185 82.6583 46.6699 81.6949 45.2596C80.9688 44.1937 81.0387 42.6672 81.958 41.7665L97.7108 26.3209C98.6275 25.4225 100.073 25.4643 100.89 26.4558ZM72.2928 34.2448L81.7785 14.3496C82.3325 13.1884 83.7239 12.6974 84.8597 13.2977C85.9651 13.8818 87.0473 14.5008 88.1083 15.1595C89.1997 15.8392 89.5 17.3214 88.818 18.4108L77.0634 37.1424C76.3815 38.2315 74.9992 38.476 73.9124 37.7918C73.7263 37.673 73.5377 37.5567 73.347 37.4451C72.2393 36.786 71.7391 35.406 72.2928 34.2448ZM59.9983 44.3495C68.6228 44.3495 75.6488 51.3824 75.6511 60.0069C75.6488 68.6385 68.6231 75.6503 59.9983 75.648C51.3738 75.648 44.3572 68.6385 44.3572 60.0069C44.3595 51.3824 51.3761 44.3495 59.9983 44.3495ZM19.2745 89.9649L37.0242 76.9163C38.0598 76.1553 39.5073 76.3858 40.3567 77.3514C41.2085 78.322 42.1301 79.2273 43.1167 80.0627C44.0987 80.8912 44.3595 82.3388 43.624 83.3906L30.9827 101.44C30.2472 102.495 28.7928 102.75 27.7759 101.964C24.4551 99.4016 21.4553 96.4533 18.8207 93.1881C18.0154 92.1852 18.239 90.7285 19.2745 89.9649Z" fill="#03F387"/>
<path d="M59.9988 69.5859C65.2929 69.5859 69.5847 65.2941 69.5847 60C69.5847 54.7059 65.2929 50.4141 59.9988 50.4141C54.7047 50.4141 50.4129 54.7059 50.4129 60C50.4129 65.2941 54.7047 69.5859 59.9988 69.5859Z" fill="#03F387"/>
</g>
<defs>
<clipPath id="clip0">
<rect width="120" height="120" fill="white"/>
</clipPath>
</defs>
</svg>
