<svg width="96" height="30" viewBox="0 0 96 30" fill="none" xmlns="http://www.w3.org/2000/svg">
<path d="M19.9558 27.2742C22.364 28.9859 25.2871 29.9999 28.4446 29.9999C36.6151 29.9999 43.2571 23.2726 43.2571 15.0023C43.2571 13.3942 43.0014 11.8513 42.5365 10.3961C41.281 6.4638 38.4578 3.24642 34.8183 1.48238C32.8835 0.542824 30.7298 -0.000572146 28.444 4.52073e-07C20.2782 -0.000572146 13.6315 6.7332 13.6315 15.0023C13.6315 18.3255 14.718 21.3887 16.5287 23.8765C17.4843 25.1873 18.637 26.3352 19.9558 27.2742ZM38.5406 6.61392C39.4526 7.73328 40.1869 9.00456 40.6972 10.3864C40.8081 10.6871 40.6415 11.0159 40.3398 11.1148L35.1556 12.8113C34.8539 12.9103 34.5333 12.7409 34.4097 12.4448C34.2437 12.0463 34.0391 11.6675 33.8012 11.3149C33.6219 11.0484 33.6392 10.6668 33.8662 10.4416L37.7557 6.5802C37.9821 6.35562 38.339 6.36606 38.5406 6.61392ZM31.4797 8.56122L33.8219 3.5874C33.9586 3.2971 34.3022 3.17434 34.5826 3.32443C34.8556 3.47045 35.1228 3.62519 35.3848 3.78989C35.6542 3.9598 35.7284 4.33034 35.56 4.60269L32.6577 9.2856C32.4892 9.55788 32.148 9.61902 31.8797 9.44796C31.8337 9.41826 31.7871 9.38916 31.74 9.36126C31.4665 9.1965 31.343 8.8515 31.4797 8.56122ZM28.444 11.0873C30.5735 11.0873 32.3084 12.8456 32.3089 15.0017C32.3084 17.1596 30.5736 18.9125 28.444 18.912C26.3146 18.912 24.582 17.1596 24.582 15.0017C24.5826 12.8456 26.3151 11.0873 28.444 11.0873ZM18.3888 22.4912L22.7714 19.229C23.0271 19.0388 23.3845 19.0964 23.5943 19.3379C23.8046 19.5805 24.0321 19.8068 24.2757 20.0157C24.5182 20.2228 24.5826 20.5847 24.401 20.8477L21.2797 25.3601C21.0981 25.6237 20.739 25.6876 20.4879 25.491C19.6679 24.8504 18.9272 24.1133 18.2767 23.297C18.0779 23.0463 18.1331 22.6821 18.3888 22.4912Z" fill="white"/>
<path d="M28.4441 17.3965C29.7513 17.3965 30.811 16.3235 30.811 15C30.811 13.6765 29.7513 12.6035 28.4441 12.6035C27.1369 12.6035 26.0773 13.6765 26.0773 15C26.0773 16.3235 27.1369 17.3965 28.4441 17.3965Z" fill="white"/>
<path d="M11.3958 20.6508C11.3958 21.2414 11.493 21.5789 11.6875 21.6633C11.7708 21.6914 11.8958 21.7055 12.0625 21.7055V17.6765H11.5208C10.8263 20.025 9.43055 21.2063 7.33331 21.2203C5.40276 21.2203 4.1597 20.1375 3.60414 17.9719C3.39581 17.1703 3.29165 16.2633 3.29165 15.2508C3.29165 12.5648 4.01387 10.7719 5.45831 9.87186C6.04164 9.50622 6.69444 9.32346 7.41663 9.32346C9.44442 9.35154 10.7916 10.5047 11.4583 12.7828H12L11.9375 8.8383C11.6181 8.8383 11.4236 8.94372 11.3542 9.15468C11.3264 9.32346 11.3125 9.57654 11.3125 9.91404C10.5208 9.29532 9.47221 8.91564 8.16661 8.775C7.875 8.74686 7.58333 8.73282 7.29165 8.73282C5.06942 8.73282 3.36803 9.55548 2.18748 11.2008C1.36803 12.368 0.958313 13.711 0.958313 15.2297C0.958313 17.0719 1.52775 18.6187 2.66664 19.8703C3.86109 21.164 5.42359 21.811 7.35417 21.811C8.77082 21.7969 10.118 21.4102 11.3958 20.6508Z" fill="white"/>
<path d="M61.8749 21.6L65.9792 9.49219H67.021V8.94373H63.6249V9.49219H65.2918L62.0835 19.2586L58.75 9.49219H60.4373V8.94373H56.625L58.0625 13.0148L55.9167 19.2797L52.4375 9.49219H54.125V8.94373H49.3333V9.49219H50.5208L54.3958 20.2711C54.6875 21.0727 54.9445 21.5227 55.1667 21.6211C55.2639 21.6633 55.368 21.6844 55.4792 21.6844H55.7083L58.4166 13.9852L60.6459 20.2711C60.9096 21.0164 61.1318 21.4383 61.3126 21.5367C61.4098 21.5789 61.5277 21.6 61.6663 21.6H61.8749ZM75.1461 21.811C76.1458 21.811 76.7431 21.3047 76.9375 20.2922C76.9653 20.0813 76.9861 19.8563 77.0003 19.6172L76.4581 19.5961C76.3609 20.6086 76.0972 21.1219 75.6669 21.136C75.3197 21.1078 75.1389 20.7492 75.1247 20.0602V15.6094C75.0975 13.4719 73.9514 12.3961 71.6877 12.382C70.0764 12.382 69.0068 12.7547 68.4794 13.5C68.3123 13.739 68.2293 13.9781 68.2293 14.2172C68.2293 14.6672 68.4373 14.9414 68.8539 15.0398C68.9511 15.0539 69.0418 15.061 69.1247 15.061C69.4998 15.061 69.7706 14.836 69.9378 14.386C70.1321 13.8375 70.2501 13.5281 70.2915 13.4578C70.5552 13.0922 70.9511 12.9094 71.4791 12.9094C72.7152 12.9375 73.3404 13.6687 73.3541 15.1031V16.432C69.8957 16.4461 68.0207 17.2547 67.7292 18.8578C67.7013 19.0125 67.6877 19.1813 67.6877 19.364C67.6877 20.475 68.1665 21.2203 69.1247 21.6C69.4862 21.7406 69.8749 21.811 70.2915 21.811C71.3055 21.811 72.1458 21.4594 72.8124 20.7563C73.0625 20.489 73.2498 20.2008 73.3748 19.8914C73.5555 21.157 74.1458 21.7969 75.1461 21.811ZM71.0625 20.9461C70.1872 20.9461 69.6877 20.4539 69.5626 19.4695C69.5484 19.3289 69.5419 19.1813 69.5419 19.0265C69.5419 18.0844 70.0557 17.4867 71.0832 17.2336C71.6249 17.107 72.3822 17.0367 73.3541 17.0227V18.7735C73.1182 19.7437 72.6181 20.4117 71.8542 20.7773C71.5763 20.8898 71.3126 20.9461 71.0625 20.9461ZM79.3541 24.9539C79.1318 24.9539 78.9582 24.7781 78.8332 24.4265C78.6667 23.9906 78.5067 23.7235 78.3544 23.625C78.2293 23.5406 78.0835 23.4985 77.9164 23.4985C77.4583 23.4985 77.1875 23.6953 77.104 24.089C77.0904 24.1594 77.0832 24.2227 77.0832 24.2789C77.0832 24.7992 77.389 25.186 78 25.439C78.3058 25.5656 78.6252 25.6289 78.9582 25.6289C80.0557 25.6289 81.0068 24.9539 81.8127 23.6039C82.1321 23.0695 82.4444 22.4227 82.7502 21.6633L85.8335 13.8586C85.9721 13.4648 86.1321 13.2398 86.3123 13.1836C86.3958 13.1695 86.493 13.1625 86.6044 13.1625C86.896 13.1625 87.0625 13.0852 87.104 12.9305C87.1182 12.8461 87.1247 12.7406 87.1247 12.614H83.9585V13.1625H85.4791L82.8752 19.7227L80.1043 13.1625H81.4791V12.614H77.2498V13.1625H78.2293L82.0415 21.6844C81.2918 23.4985 80.5831 24.5531 79.9164 24.8485C79.7221 24.9187 79.5348 24.9539 79.3541 24.9539ZM91.1875 21.2414C92.1458 21.2414 92.7709 20.939 93.0625 20.3344C93.1597 20.1375 93.2083 19.9336 93.2083 19.7227C93.2083 19.1039 92.7775 18.5765 91.9164 18.1406C91.7363 18.0422 91.4376 17.9015 91.021 17.7187C89.9099 17.2406 89.1668 16.7906 88.7917 16.3687C88.4029 15.9187 88.2086 15.3914 88.2086 14.7867C88.2086 13.7883 88.7502 13.0781 89.8335 12.6563C90.3472 12.4735 90.9025 12.382 91.4998 12.382C92.4444 12.382 93.2432 12.5789 93.8957 12.9727C93.8957 12.5648 93.9929 12.3328 94.1872 12.2765C94.2572 12.2625 94.3472 12.2555 94.4581 12.2555V14.8922H93.8957C93.8678 13.5985 93.1597 12.9445 91.7707 12.9305C90.7709 12.9305 90.1458 13.2398 89.8957 13.8586C89.84 14.0273 89.8127 14.1961 89.8127 14.3648C89.8127 14.9695 90.2358 15.4828 91.0832 15.9047C91.2776 16.0031 91.5763 16.1367 91.9792 16.3055C93.104 16.7695 93.8542 17.2055 94.2293 17.6133C94.6317 18.0773 94.8332 18.6258 94.8332 19.2586C94.8332 20.4258 94.2293 21.1992 93.021 21.5789C92.5487 21.7336 92.0349 21.811 91.4791 21.811C90.4373 21.7969 89.5348 21.5508 88.7709 21.0727C88.7709 21.4383 88.6803 21.6492 88.5001 21.7055C88.4166 21.7195 88.3194 21.7265 88.2086 21.7265V18.5203H88.8124C88.8403 20.3203 89.632 21.2273 91.1875 21.2414Z" fill="#03F387"/>
</svg>
